/vscmnt/brussel_pixiu_data/_data_brussel/112/vsc11236/PredSimResults/SUBJ11_gait1422_tracking/SUBJ11_gait1422_11432683.mot
version=1
nRows=10
nColumns=50
inDegrees=yes
endheader
                time	         pelvis_tilt	         pelvis_list	     pelvis_rotation	           pelvis_tx	           pelvis_ty	           pelvis_tz	       hip_flexion_r	     hip_adduction_r	      hip_rotation_r	        knee_angle_r	       ankle_angle_r	         mtp_angle_r	       hip_flexion_l	     hip_adduction_l	      hip_rotation_l	        knee_angle_l	       ankle_angle_l	         mtp_angle_l	    lumbar_extension	      lumbar_bending	     lumbar_rotation	 ercspn_r/activation	 intobl_r/activation	 extobl_r/activation	    abd_r/activation	    add_r/activation	hamstrings_r/activation	bifemsh_r/activation	glut_max_r/activation	iliopsoas_r/activation	rect_fem_r/activation	  vasti_r/activation	gastroc_r/activation	 soleus_r/activation	tib_ant_r/activation	 ercspn_l/activation	 intobl_l/activation	 extobl_l/activation	    abd_l/activation	    add_l/activation	hamstrings_l/activation	bifemsh_l/activation	glut_max_l/activation	iliopsoas_l/activation	rect_fem_l/activation	  vasti_l/activation	gastroc_l/activation	 soleus_l/activation	tib_ant_l/activation	
          1.78176333	         -1.33220693	         -1.77864581	         -3.42479393	          1.96996981	          0.95284875	          0.03702996	        -11.06576490	          2.26363991	         -5.83735554	        -14.96228237	         12.64021354	         27.30603821	         27.03682934	         -3.36479681	        -13.31793883	         -7.66932175	         -4.34278364	          0.11727304	         -9.72754550	          0.73760241	          5.69631343	          0.10300239	          0.01000360	          0.01000230	          0.10414222	          0.01000442	          0.01662278	          0.07469259	          0.01001679	          0.15963280	          0.02497090	          0.01000483	          0.44441760	          0.36446647	          0.02467442	          0.07042014	          0.03558621	          0.01033809	          0.04046088	          0.04918910	          0.07027416	          0.18990983	          0.07712354	          0.13339824	          0.01000639	          0.04124304	          0.01435169	          0.01200469	          0.27061703	
          1.79364176	         -1.43441572	         -1.57390767	         -3.80156860	          1.98681220	          0.95191374	          0.03650794	        -11.24922553	          1.75882036	         -5.60049267	        -16.18072252	         11.79173117	         29.52939096	         26.75832268	         -3.20344669	        -12.57303381	         -9.05114828	         -3.26580470	          0.02963246	         -9.16007496	          0.32136164	          5.74472840	          0.08598114	          0.01013593	          0.08942389	          0.09106991	          0.01000425	          0.05021330	          0.06240640	          0.01168416	          0.13325386	          0.02084595	          0.01134105	          0.42769214	          0.36929534	          0.02059686	          0.05878316	          0.11541462	          0.07592874	          0.03377466	          0.04106252	          0.05866109	          0.15853137	          0.06437877	          0.25149629	          0.29954788	          0.03442903	          0.01198019	          0.01002106	          0.25041148	
          1.80552018	         -1.55214515	         -1.25354808	         -4.17826999	          2.00401026	          0.95131688	          0.03581930	        -11.28650219	          1.10569836	         -5.38896356	        -17.59585406	         10.73251742	         31.91174839	         26.31757726	         -2.85775395	        -12.04440037	        -10.08459434	         -2.70721335	          0.11368246	         -8.51955855	         -0.20897366	          5.77743684	          0.07177276	          0.02059510	          0.11354517	          0.07602081	          0.01000894	          0.11186895	          0.05277375	          0.01001113	          0.11123508	          0.01740267	          0.01366929	          0.39907954	          0.34828195	          0.01719314	          0.04906929	          0.18425947	          0.11090728	          0.02819339	          0.03427780	          0.04896717	          0.13233800	          0.05374012	          0.32247365	          0.36623195	          0.09321218	          0.01000070	          0.01000021	          0.27558875	
          1.81739860	         -1.68773920	         -0.72823197	         -4.51675578	          2.02118573	          0.95111259	          0.03497056	        -11.09564859	          0.22090894	         -5.22900739	        -19.30088203	          9.49941296	         34.40209929	         25.82705997	         -2.26350944	        -11.67062147	        -10.71010810	         -3.15115345	          0.12660190	         -7.86487003	         -0.97508549	          5.76753886	          0.05991237	          0.01719397	          0.09478307	          0.06345850	          0.01000239	          0.16319928	          0.04829122	          0.01719819	          0.09285574	          0.01452802	          0.01197456	          0.37037939	          0.33008044	          0.01435192	          0.04096083	          0.19766338	          0.09321965	          0.02353481	          0.02861440	          0.04087539	          0.11047323	          0.04485999	          0.29891500	          0.30572202	          0.08638763	          0.03339447	          0.01000413	          0.23004614	
          1.82927702	         -1.83273539	         -0.02600936	         -4.78360139	          2.03816040	          0.95123883	          0.03396488	        -10.64792652	         -0.85695943	         -5.10148124	        -21.35327217	          8.09981164	         36.95151205	         25.45532069	         -1.47790912	        -11.34075250	        -11.40514990	         -3.84978682	          0.11556478	         -7.23415022	         -1.95839145	          5.70733200	          0.05001407	          0.01435355	          0.07912026	          0.05297184	          0.01000362	          0.22672462	          0.07174225	          0.01435790	          0.09539345	          0.01212890	          0.01001390	          0.33717620	          0.27553494	          0.01198023	          0.03419409	          0.16500007	          0.07781562	          0.03513169	          0.02388775	          0.03412207	          0.09222088	          0.03744911	          0.24951806	          0.25520034	          0.08323983	          0.02787757	          0.01995469	          0.22136313	
          1.84115545	         -1.97105652	          0.73636023	         -4.96198402	          2.05487585	          0.95164892	          0.03281758	         -9.92869930	         -2.00091815	         -4.95230819	        -23.82189842	          6.50933512	         39.48238252	         25.22759452	         -0.62750463	        -10.99385224	        -12.34284875	         -4.35847511	          0.08840322	         -6.65846407	         -3.03064864	          5.60417371	          0.06320203	          0.01198276	          0.06604567	          0.04421810	          0.01000381	          0.26801264	          0.14035139	          0.01198749	          0.13222523	          0.01012708	          0.01000258	          0.28145639	          0.23000107	          0.01000049	          0.03560971	          0.13773402	          0.06495710	          0.07362486	          0.02493321	          0.05075561	          0.20590982	          0.03126352	          0.20828450	          0.21302743	          0.06948423	          0.02327906	          0.01665833	          0.19453332	
          1.85303387	         -2.09277521	          1.41940462	         -5.03743884	          2.07126597	          0.95229507	          0.03156021	         -8.90247033	         -3.05763754	         -4.71966362	        -26.80463701	          4.70985490	         41.83963053	         25.15015635	          0.12859868	        -10.68813523	        -13.66811521	         -4.19588376	          0.16607694	         -6.16228343	         -4.03558187	          5.45969671	          0.08268875	          0.01000561	          0.05513186	          0.03691093	          0.01000298	          0.35878949	          0.40362437	          0.01000858	          0.17183668	          0.01000252	          0.01000063	          0.23494402	          0.19199186	          0.01000086	          0.05039972	          0.11497375	          0.05422339	          0.12306525	          0.05926136	          0.04237780	          0.17188709	          0.02610074	          0.17386472	          0.17782411	          0.05802081	          0.01949690	          0.02387611	          0.16238647	
          1.86491229	         -2.19649286	          2.00706121	         -4.99874667	          2.08726273	          0.95313381	          0.03022564	         -7.49745305	         -3.99923574	         -4.36235162	        -30.47813803	          3.04858274	         43.12379669	         25.13412707	          0.77846265	        -10.54088777	        -15.20491166	         -3.41884090	          0.53614416	         -5.74732023	         -4.95901986	          5.25682767	          0.14692241	          0.01000415	          0.04602211	          0.03081130	          0.04661394	          0.29950156	          0.46718198	          0.01000276	          0.16978800	          0.01000073	          0.01000013	          0.19611810	          0.16026395	          0.09275621	          0.04207465	          0.09597453	          0.04526346	          0.10276521	          0.07204041	          0.04604164	          0.14348705	          0.13245059	          0.14513289	          0.14843834	          0.07100922	          0.01713843	          0.03621361	          0.13555168	
          1.87679071	         -2.28434158	          2.50355409	         -4.86423129	          2.10290741	          0.95410359	          0.02885264	         -5.72337230	         -4.81864721	         -3.96318754	        -34.89704777	          2.09574905	         42.05343170	         24.99602216	          1.36280708	        -10.53522887	        -16.56312629	         -2.39461983	          1.19287020	         -5.39086217	         -5.79771900	          5.00908204	          0.19056538	          0.01002467	          0.03841890	          0.02571967	          0.04676841	          0.25000736	          0.38997929	          0.01000327	          0.14176462	          0.01000125	          0.01000020	          0.16370837	          0.13377928	          0.26019005	          0.03512326	          0.08011492	          0.03778420	          0.10579237	          0.08963738	          0.04247137	          0.11978144	          0.16787770	          0.12114915	          0.12390879	          0.07866528	          0.01431007	          0.03922521	          0.11315144	
          1.88866913	         -2.35935171	          2.96601447	         -4.66302820	          2.11826997	          0.95512165	          0.02746989	         -3.70523221	         -5.56776452	         -3.54906807	        -39.78775331	          1.78869342	         38.87031650	         24.65929377	          1.95838722	        -10.57284798	        -17.58019885	         -1.30655992	          1.95347069	         -5.06312335	         -6.60514910	          4.73137617	          0.20670900	          0.03511083	          0.03207366	          0.02146948	          0.03904202	          0.20869214	          0.32553408	          0.01000286	          0.11834284	          0.01000123	          0.01000022	          0.13665462	          0.11167141	          0.37683840	          0.02932070	          0.06687627	          0.03154098	          0.08834562	          0.07573051	          0.04523562	          0.09999481	          0.17710543	          0.10112884	          0.10343289	          0.09709935	          0.01194702	          0.04601532	          0.09445305	
